# xmcd
#
# Track frame offsets:
#	150
#	25490
#	49050
#	68442
#	93035
#	110315
#	128632
#	145757
#	163890
#	190075
#	208965
#	229767
#	247440
#	265960
#	284825
#	302487
#
# Disc length: 4348 seconds
#
# Revision: 4
# Processed by: cddbd v1.5.2PL0 Copyright (c) Steve Scherf et al.
# Submitted via: EasyCDDAExtractor 12.0.1.1
#
DISCID=ec10fa10
DTITLE=Lissette - 16 Grandes De Lissette
DYEAR=1990
DGENRE=Latin
TTITLE0=Eclipse Total Del Amor
TTITLE1=Maquina
TTITLE2=Fuego
TTITLE3=Doña Soledad
TTITLE4=Enamorados (Duo Con Willy Chirino)
TTITLE5=Caricatura
TTITLE6=A Veces
TTITLE7=No Soy Una Señora
TTITLE8=Mama
TTITLE9=Eva
TTITLE10=Vivo
TTITLE11=Yo Me Voy Sola
TTITLE12=Hoy Vine Con Ella (Duo Con Manoella Torres)
TTITLE13=Obsesion
TTITLE14=Fuga
TTITLE15=Luna Llena
EXTD=YEAR: 1990 ID3G: 116
EXTT0=
EXTT1=
EXTT2=
EXTT3=
EXTT4=
EXTT5=
EXTT6=
EXTT7=
EXTT8=
EXTT9=
EXTT10=
EXTT11=
EXTT12=
EXTT13=
EXTT14=
EXTT15=
PLAYORDER=
